<?xml version="1.0" encoding="UTF-8" standalone="no"?>
<svg
   xmlns:dc="http://purl.org/dc/elements/1.1/"
   xmlns:cc="http://creativecommons.org/ns#"
   xmlns:rdf="http://www.w3.org/1999/02/22-rdf-syntax-ns#"
   xmlns:svg="http://www.w3.org/2000/svg"
   xmlns="http://www.w3.org/2000/svg"
   xmlns:xlink="http://www.w3.org/1999/xlink"
   xmlns:sodipodi="http://sodipodi.sourceforge.net/DTD/sodipodi-0.dtd"
   xmlns:inkscape="http://www.inkscape.org/namespaces/inkscape"
   width="600"
   height="480"
   viewBox="0 0 600 480"
   id="svg2"
   version="1.1"
   inkscape:version="0.48.4 r9939"
   sodipodi:docname="90000.svg">
  <metadata
     id="metadata173">
    <rdf:RDF>
      <cc:Work
         rdf:about="">
        <dc:format>image/svg+xml</dc:format>
        <dc:type
           rdf:resource="http://purl.org/dc/dcmitype/StillImage" />
      </cc:Work>
    </rdf:RDF>
  </metadata>
  <defs
     id="defs171" />
  <sodipodi:namedview
     pagecolor="#ffffff"
     bordercolor="#666666"
     borderopacity="1"
     objecttolerance="10"
     gridtolerance="10"
     guidetolerance="10"
     inkscape:pageopacity="0"
     inkscape:pageshadow="2"
     inkscape:window-width="1366"
     inkscape:window-height="744"
     id="namedview169"
     showgrid="false"
     inkscape:zoom="1.1854167"
     inkscape:cx="276.5946"
     inkscape:cy="240"
     inkscape:window-x="0"
     inkscape:window-y="24"
     inkscape:window-maximized="1"
     inkscape:current-layer="svg2" />
  <title
     id="title4">Gnuplot</title>
  <desc
     id="desc6">Produced by GNUPLOT 4.6 patchlevel 4 </desc>
  <g
     id="gnuplot_canvas">
    <rect
       x="0"
       y="0"
       width="600"
       height="480"
       fill="none"
       id="rect9" />
    <defs
       id="defs11">
      <circle
         id="gpDot"
         r="0.5"
         stroke-width="0.5" />
      <path
         id="gpPt0"
         stroke-width="0.222"
         stroke="currentColor"
         d="M-1,0 h2 M0,-1 v2" />
      <path
         id="gpPt1"
         stroke-width="0.222"
         stroke="currentColor"
         d="M-1,-1 L1,1 M1,-1 L-1,1" />
      <path
         id="gpPt2"
         stroke-width="0.222"
         stroke="currentColor"
         d="M-1,0 L1,0 M0,-1 L0,1 M-1,-1 L1,1 M-1,1 L1,-1" />
      <rect
         id="gpPt3"
         stroke-width="0.222"
         stroke="currentColor"
         x="-1"
         y="-1"
         width="2"
         height="2" />
      <rect
         id="gpPt4"
         stroke-width="0.222"
         stroke="currentColor"
         fill="currentColor"
         x="-1"
         y="-1"
         width="2"
         height="2" />
      <circle
         id="gpPt5"
         stroke-width="0.222"
         stroke="currentColor"
         cx="0"
         cy="0"
         r="1" />
      <use
         xlink:href="#gpPt5"
         id="gpPt6"
         fill="currentColor"
         stroke="none" />
      <path
         id="gpPt7"
         stroke-width="0.222"
         stroke="currentColor"
         d="M0,-1.33 L-1.33,0.67 L1.33,0.67 z" />
      <use
         xlink:href="#gpPt7"
         id="gpPt8"
         fill="currentColor"
         stroke="none" />
      <use
         xlink:href="#gpPt7"
         id="gpPt9"
         stroke="currentColor"
         transform="rotate(180)" />
      <use
         xlink:href="#gpPt9"
         id="gpPt10"
         fill="currentColor"
         stroke="none" />
      <use
         xlink:href="#gpPt3"
         id="gpPt11"
         stroke="currentColor"
         transform="rotate(45)" />
      <use
         xlink:href="#gpPt11"
         id="gpPt12"
         fill="currentColor"
         stroke="none" />
    </defs>
    <g
       style="fill:none; color:white; stroke:black; stroke-width:1.00; stroke-linecap:butt; stroke-linejoin:miter"
       id="g27" />
    <g
       style="fill:none; color:black; stroke:currentColor; stroke-width:1.00; stroke-linecap:butt; stroke-linejoin:miter"
       id="g29">
      <path
         stroke="black"
         d="M105.1,422.4 L114.1,422.4 M575.0,422.4 L566.0,422.4  h0.01"
         id="path31" />
      <g
         transform="translate(96.8,426.9)"
         style="stroke:none; fill:black; font-family:Arial; font-size:12.00pt; text-anchor:end"
         id="g33">
        <text
           id="text35"> 0</text>
      </g>
      <path
         stroke="black"
         d="M105.1,354.8 L114.1,354.8 M575.0,354.8 L566.0,354.8  h0.01"
         id="path37" />
      <g
         transform="translate(96.8,359.3)"
         style="stroke:none; fill:black; font-family:Arial; font-size:12.00pt; text-anchor:end"
         id="g39">
        <text
           id="text41"> 2e+06</text>
      </g>
      <path
         stroke="black"
         d="M105.1,287.2 L114.1,287.2 M575.0,287.2 L566.0,287.2  h0.01"
         id="path43" />
      <g
         transform="translate(96.8,291.7)"
         style="stroke:none; fill:black; font-family:Arial; font-size:12.00pt; text-anchor:end"
         id="g45">
        <text
           id="text47"> 4e+06</text>
      </g>
      <path
         stroke="black"
         d="M105.1,219.5 L114.1,219.5 M575.0,219.5 L566.0,219.5  h0.01"
         id="path49" />
      <g
         transform="translate(96.8,224.0)"
         style="stroke:none; fill:black; font-family:Arial; font-size:12.00pt; text-anchor:end"
         id="g51">
        <text
           id="text53"> 6e+06</text>
      </g>
      <path
         stroke="black"
         d="M105.1,151.9 L114.1,151.9 M575.0,151.9 L566.0,151.9  h0.01"
         id="path55" />
      <g
         transform="translate(96.8,156.4)"
         style="stroke:none; fill:black; font-family:Arial; font-size:12.00pt; text-anchor:end"
         id="g57">
        <text
           id="text59"> 8e+06</text>
      </g>
      <path
         stroke="black"
         d="M105.1,84.3 L114.1,84.3 M575.0,84.3 L566.0,84.3  h0.01"
         id="path61" />
      <g
         transform="translate(96.8,88.8)"
         style="stroke:none; fill:black; font-family:Arial; font-size:12.00pt; text-anchor:end"
         id="g63">
        <text
           id="text65"> 1e+07</text>
      </g>
      <path
         stroke="black"
         d="M105.1,16.7 L114.1,16.7 M575.0,16.7 L566.0,16.7  h0.01"
         id="path67" />
      <g
         transform="translate(96.8,21.2)"
         style="stroke:none; fill:black; font-family:Arial; font-size:12.00pt; text-anchor:end"
         id="g69">
        <text
           id="text71"> 1.2e+07</text>
      </g>
      <path
         stroke="black"
         d="M105.1,422.4 L105.1,413.4 M105.1,16.7 L105.1,25.7  h0.01"
         id="path73" />
      <g
         transform="translate(105.1,444.9)"
         style="stroke:none; fill:black; font-family:Arial; font-size:12.00pt; text-anchor:middle"
         id="g75">
        <text
           id="text77"> 0</text>
      </g>
      <path
         stroke="black"
         d="M157.3,422.4 L157.3,413.4 M157.3,16.7 L157.3,25.7  h0.01"
         id="path79" />
      <g
         transform="translate(157.3,444.9)"
         style="stroke:none; fill:black; font-family:Arial; font-size:12.00pt; text-anchor:middle"
         id="g81">
        <text
           id="text83"> 10000</text>
      </g>
      <path
         stroke="black"
         d="M209.5,422.4 L209.5,413.4 M209.5,16.7 L209.5,25.7  h0.01"
         id="path85" />
      <g
         transform="translate(209.5,444.9)"
         style="stroke:none; fill:black; font-family:Arial; font-size:12.00pt; text-anchor:middle"
         id="g87">
        <text
           id="text89"> 20000</text>
      </g>
      <path
         stroke="black"
         d="M261.7,422.4 L261.7,413.4 M261.7,16.7 L261.7,25.7  h0.01"
         id="path91" />
      <g
         transform="translate(261.7,444.9)"
         style="stroke:none; fill:black; font-family:Arial; font-size:12.00pt; text-anchor:middle"
         id="g93">
        <text
           id="text95"> 30000</text>
      </g>
      <path
         stroke="black"
         d="M313.9,422.4 L313.9,413.4 M313.9,16.7 L313.9,25.7  h0.01"
         id="path97" />
      <g
         transform="translate(313.9,444.9)"
         style="stroke:none; fill:black; font-family:Arial; font-size:12.00pt; text-anchor:middle"
         id="g99">
        <text
           id="text101"> 40000</text>
      </g>
      <path
         stroke="black"
         d="M366.2,422.4 L366.2,413.4 M366.2,16.7 L366.2,25.7  h0.01"
         id="path103" />
      <g
         transform="translate(366.2,444.9)"
         style="stroke:none; fill:black; font-family:Arial; font-size:12.00pt; text-anchor:middle"
         id="g105">
        <text
           id="text107"> 50000</text>
      </g>
      <path
         stroke="black"
         d="M418.4,422.4 L418.4,413.4 M418.4,16.7 L418.4,25.7  h0.01"
         id="path109" />
      <g
         transform="translate(418.4,444.9)"
         style="stroke:none; fill:black; font-family:Arial; font-size:12.00pt; text-anchor:middle"
         id="g111">
        <text
           id="text113"> 60000</text>
      </g>
      <path
         stroke="black"
         d="M470.6,422.4 L470.6,413.4 M470.6,16.7 L470.6,25.7  h0.01"
         id="path115" />
      <g
         transform="translate(470.6,444.9)"
         style="stroke:none; fill:black; font-family:Arial; font-size:12.00pt; text-anchor:middle"
         id="g117">
        <text
           id="text119"> 70000</text>
      </g>
      <path
         stroke="black"
         d="M522.8,422.4 L522.8,413.4 M522.8,16.7 L522.8,25.7  h0.01"
         id="path121" />
      <g
         transform="translate(522.8,444.9)"
         style="stroke:none; fill:black; font-family:Arial; font-size:12.00pt; text-anchor:middle"
         id="g123">
        <text
           id="text125"> 80000</text>
      </g>
      <path
         stroke="black"
         d="M575.0,422.4 L575.0,413.4 M575.0,16.7 L575.0,25.7  h0.01"
         id="path127" />
      <g
         transform="translate(575.0,444.9)"
         style="stroke:none; fill:black; font-family:Arial; font-size:12.00pt; text-anchor:middle"
         id="g129">
        <text
           id="text131"> 90000</text>
      </g>
      <path
         stroke="black"
         d="M105.1,16.7 L105.1,422.4 L575.0,422.4 L575.0,16.7 L105.1,16.7 Z  h0.01"
         id="path133" />
      <g
         transform="translate(17.6,219.6) rotate(270)"
         style="stroke:none; fill:black; font-family:Arial; font-size:12.00pt; text-anchor:middle"
         id="g135">
        <text
           id="text137">Space Occupied (Bytes)</text>
      </g>
      <g
         transform="translate(340.0,471.9)"
         style="stroke:none; fill:black; font-family:Arial; font-size:12.00pt; text-anchor:middle"
         id="g139">
        <text
           id="text141">Number of Records</text>
      </g>
    </g>
    <g
       id="gnuplot_plot_1">
      <title
         id="title144">gnuplot_plot_1</title>
      <g
         style="fill:none; color:red; stroke:currentColor; stroke-width:1.00; stroke-linecap:butt; stroke-linejoin:miter"
         id="g146">
        <g
           transform="translate(507.9,39.2)"
           style="stroke:none; fill:black; font-family:Arial; font-size:12.00pt; text-anchor:end"
           id="g148">
          <text
             id="text150">Proposed Graph Storage</text>
        </g>
        <path
           d="M516.2,34.7 L558.4,34.7 M109.8,422.4 L114.5,418.5 L119.2,414.6 L123.9,410.8 L128.6,406.9 L133.3,403.1    L138.0,399.3 L142.7,395.5 L147.4,391.7 L152.1,388.0 L156.8,384.3 L161.5,380.6 L166.2,376.9 L170.9,373.2    L175.6,369.5 L180.3,365.9 L185.0,362.2 L189.7,358.7 L194.4,355.1 L199.1,351.5 L203.8,348.0 L208.5,344.5    L213.2,341.0 L217.9,337.4 L222.6,334.0 L227.3,330.5 L232.0,327.0 L236.7,323.6 L241.4,320.2 L246.1,316.8    L250.8,313.5 L255.5,310.1 L260.2,306.8 L264.9,303.5 L269.6,300.2 L274.3,296.9 L279.0,293.6 L283.7,290.3    L288.4,287.0 L293.1,283.8 L297.8,280.6 L302.5,277.4 L307.2,274.1 L311.9,271.0 L316.6,267.8 L321.3,264.6    L326.0,261.5 L330.7,258.3 L335.4,255.2 L340.1,252.0 L344.7,248.9 L349.4,245.8 L354.1,242.7 L358.8,239.7    L363.5,236.6 L368.2,233.5 L372.9,230.5 L377.6,227.4 L382.3,224.4 L387.0,221.4 L391.7,218.4 L396.4,215.4    L401.1,212.4 L405.8,209.4 L410.5,206.4 L415.2,203.4 L419.9,200.5 L424.6,197.6 L429.3,194.6 L434.0,191.7    L438.7,188.7 L443.4,185.8 L448.1,182.8 L452.8,179.9 L457.5,177.0 L462.2,174.1 L466.9,171.2 L471.6,168.3    L476.3,165.5 L481.0,162.6 L485.7,159.7 L490.4,156.9 L495.1,154.1 L499.8,151.2 L504.5,148.4 L509.2,145.6    L513.9,142.8 L518.6,139.9 L523.3,137.1 L528.0,134.3 L532.7,131.5 L537.4,128.8 L542.1,126.0 L546.8,123.2    L551.5,120.4 L556.2,117.7 L560.9,114.9 L565.6,112.2 L570.3,109.4 L575.0,106.7  h0.01"
           id="path152"
           style="stroke-width:1;stroke-miterlimit:4;stroke-dasharray:none;stroke-dashoffset:0" />
      </g>
    </g>
    <g
       id="gnuplot_plot_2">
      <title
         id="title155">gnuplot_plot_2</title>
      <g
         style="fill:none; color:green; stroke:currentColor; stroke-width:1.00; stroke-linecap:butt; stroke-linejoin:miter"
         id="g157">
        <g
           transform="translate(507.9,57.2)"
           style="stroke:none; fill:black; font-family:Arial; font-size:12.00pt; text-anchor:end"
           id="g159">
          <text
             id="text161">Traditional Relational Databases</text>
        </g>
        <path
           d="M516.2,52.7 L558.4,52.7 M109.8,422.4 L114.5,418.7 L119.2,415.0 L123.9,411.3 L128.6,407.5 L133.3,403.8    L138.0,400.1 L142.7,396.4 L147.4,392.7 L152.1,389.0 L156.8,385.3 L161.5,381.6 L166.2,377.9 L170.9,374.1    L175.6,370.4 L180.3,366.7 L185.0,363.0 L189.7,359.3 L194.4,355.6 L199.1,351.9 L203.8,348.2 L208.5,344.4    L213.2,340.7 L217.9,337.0 L222.6,333.3 L227.3,329.6 L232.0,325.9 L236.7,322.2 L241.4,318.5 L246.1,314.7    L250.8,311.0 L255.5,307.3 L260.2,303.6 L264.9,299.9 L269.6,296.2 L274.3,292.5 L279.0,288.8 L283.7,285.0    L288.4,281.3 L293.1,277.6 L297.8,273.9 L302.5,270.2 L307.2,266.5 L311.9,262.8 L316.6,259.1 L321.3,255.3    L326.0,251.6 L330.7,247.9 L335.4,244.2 L340.1,240.5 L344.7,236.8 L349.4,233.1 L354.1,229.4 L358.8,225.7    L363.5,221.9 L368.2,218.2 L372.9,214.5 L377.6,210.8 L382.3,207.1 L387.0,203.4 L391.7,199.7 L396.4,196.0    L401.1,192.2 L405.8,188.5 L410.5,184.8 L415.2,181.1 L419.9,177.4 L424.6,173.7 L429.3,170.0 L434.0,166.3    L438.7,162.5 L443.4,158.8 L448.1,155.1 L452.8,151.4 L457.5,147.7 L462.2,144.0 L466.9,140.3 L471.6,136.6    L476.3,132.8 L481.0,129.1 L485.7,125.4 L490.4,121.7 L495.1,118.0 L499.8,114.3 L504.5,110.6 L509.2,106.9    L513.9,103.2 L518.6,99.4 L523.3,95.7 L528.0,92.0 L532.7,88.3 L537.4,84.6 L542.1,80.9 L546.8,77.2    L551.5,73.5 L556.2,69.7 L560.9,66.0 L565.6,62.3 L570.3,58.6 L575.0,54.9  h0.01"
           id="path163"
           style="stroke-width:1;stroke-miterlimit:4;stroke-dasharray:3,3;stroke-dashoffset:0" />
      </g>
    </g>
    <g
       style="fill:none; color:black; stroke:currentColor; stroke-width:1.00; stroke-linecap:butt; stroke-linejoin:miter"
       id="g165">
      <path
         stroke="black"
         d="M105.1,16.7 L105.1,422.4 L575.0,422.4 L575.0,16.7 L105.1,16.7 Z  h0.01"
         id="path167" />
    </g>
  </g>
</svg>
