<?xml version="1.0" encoding="UTF-8" standalone="no"?>
<!-- Created with Inkscape (http://www.inkscape.org/) -->

<svg
   xmlns:dc="http://purl.org/dc/elements/1.1/"
   xmlns:cc="http://creativecommons.org/ns#"
   xmlns:rdf="http://www.w3.org/1999/02/22-rdf-syntax-ns#"
   xmlns:svg="http://www.w3.org/2000/svg"
   xmlns="http://www.w3.org/2000/svg"
   xmlns:sodipodi="http://sodipodi.sourceforge.net/DTD/sodipodi-0.dtd"
   xmlns:inkscape="http://www.inkscape.org/namespaces/inkscape"
   width="544.25397"
   height="742.29169"
   id="svg2"
   version="1.1"
   inkscape:version="0.48.4 r9939"
   sodipodi:docname="foreign_key.svg">
  <defs
     id="defs4">
    <marker
       inkscape:stockid="Arrow1Lstart"
       orient="auto"
       refY="0"
       refX="0"
       id="Arrow1Lstart"
       style="overflow:visible">
      <path
         id="path3796"
         d="M 0,0 5,-5 -12.5,0 5,5 0,0 z"
         style="fill-rule:evenodd;stroke:#000000;stroke-width:1pt"
         transform="matrix(0.8,0,0,0.8,10,0)"
         inkscape:connector-curvature="0" />
    </marker>
    <marker
       inkscape:stockid="Arrow1Lend"
       orient="auto"
       refY="0"
       refX="0"
       id="Arrow1Lend"
       style="overflow:visible">
      <path
         id="path3799"
         d="M 0,0 5,-5 -12.5,0 5,5 0,0 z"
         style="fill-rule:evenodd;stroke:#000000;stroke-width:1pt"
         transform="matrix(-0.8,0,0,-0.8,-10,0)"
         inkscape:connector-curvature="0" />
    </marker>
    <marker
       inkscape:stockid="Arrow2Lend"
       orient="auto"
       refY="0"
       refX="0"
       id="Arrow2Lend"
       style="overflow:visible">
      <path
         id="path3817"
         style="fill-rule:evenodd;stroke-width:0.625;stroke-linejoin:round"
         d="M 8.7185878,4.0337352 -2.2072895,0.01601326 8.7185884,-4.0017078 c -1.7454984,2.3720609 -1.7354408,5.6174519 -6e-7,8.035443 z"
         transform="matrix(-1.1,0,0,-1.1,-1.1,0)"
         inkscape:connector-curvature="0" />
    </marker>
    <marker
       inkscape:stockid="Arrow2Mstart"
       orient="auto"
       refY="0"
       refX="0"
       id="Arrow2Mstart"
       style="overflow:visible">
      <path
         id="path3820"
         style="fill-rule:evenodd;stroke-width:0.625;stroke-linejoin:round"
         d="M 8.7185878,4.0337352 -2.2072895,0.01601326 8.7185884,-4.0017078 c -1.7454984,2.3720609 -1.7354408,5.6174519 -6e-7,8.035443 z"
         transform="scale(0.6,0.6)"
         inkscape:connector-curvature="0" />
    </marker>
    <marker
       inkscape:stockid="Arrow1Lend"
       orient="auto"
       refY="0"
       refX="0"
       id="Arrow1Lend-8"
       style="overflow:visible">
      <path
         inkscape:connector-curvature="0"
         id="path3799-2"
         d="M 0,0 5,-5 -12.5,0 5,5 0,0 z"
         style="fill-rule:evenodd;stroke:#000000;stroke-width:1pt"
         transform="matrix(-0.8,0,0,-0.8,-10,0)" />
    </marker>
    <marker
       inkscape:stockid="Arrow1Lend"
       orient="auto"
       refY="0"
       refX="0"
       id="marker5762"
       style="overflow:visible">
      <path
         inkscape:connector-curvature="0"
         id="path5764"
         d="M 0,0 5,-5 -12.5,0 5,5 0,0 z"
         style="fill-rule:evenodd;stroke:#000000;stroke-width:1pt"
         transform="matrix(-0.8,0,0,-0.8,-10,0)" />
    </marker>
    <marker
       inkscape:stockid="Arrow1Lend"
       orient="auto"
       refY="0"
       refX="0"
       id="marker5766"
       style="overflow:visible">
      <path
         inkscape:connector-curvature="0"
         id="path5768"
         d="M 0,0 5,-5 -12.5,0 5,5 0,0 z"
         style="fill-rule:evenodd;stroke:#000000;stroke-width:1pt"
         transform="matrix(-0.8,0,0,-0.8,-10,0)" />
    </marker>
  </defs>
  <sodipodi:namedview
     id="base"
     pagecolor="#ffffff"
     bordercolor="#666666"
     borderopacity="1.0"
     inkscape:pageopacity="0.0"
     inkscape:pageshadow="2"
     inkscape:zoom="1.02"
     inkscape:cx="295.18265"
     inkscape:cy="318.17647"
     inkscape:document-units="px"
     inkscape:current-layer="layer1"
     showgrid="false"
     fit-margin-top="0"
     fit-margin-left="0"
     fit-margin-right="0"
     fit-margin-bottom="0"
     inkscape:window-width="1366"
     inkscape:window-height="744"
     inkscape:window-x="0"
     inkscape:window-y="24"
     inkscape:window-maximized="1" />
  <metadata
     id="metadata7">
    <rdf:RDF>
      <cc:Work
         rdf:about="">
        <dc:format>image/svg+xml</dc:format>
        <dc:type
           rdf:resource="http://purl.org/dc/dcmitype/StillImage" />
        <dc:title />
      </cc:Work>
    </rdf:RDF>
  </metadata>
  <g
     inkscape:label="Layer 1"
     inkscape:groupmode="layer"
     id="layer1"
     transform="translate(-132.44118,-301.23472)">
    <path
       sodipodi:type="arc"
       style="fill:#ffffff;fill-opacity:0;fill-rule:evenodd;stroke:#000000;stroke-width:1px;stroke-linecap:butt;stroke-linejoin:miter;stroke-opacity:1"
       id="path2985"
       sodipodi:cx="340.30692"
       sodipodi:cy="647.32294"
       sodipodi:rx="214.54132"
       sodipodi:ry="68.431282"
       d="m 554.84824,647.32294 c 0,37.79355 -96.05343,68.43128 -214.54132,68.43128 -118.4879,0 -214.54133,-30.63773 -214.54133,-68.43128 0,-37.79356 96.05343,-68.43129 214.54133,-68.43129 118.48789,0 214.54132,30.63773 214.54132,68.43129 z"
       transform="matrix(0.19073488,0,0,1.5397426,552.75641,-290.42249)" />
    <a
       id="a6593"
       style="stroke-width:4;stroke-linejoin:round;stroke-miterlimit:4;stroke-dasharray:16, 4;stroke-dashoffset:0;fill:#000000;fill-opacity:0">
      <path
         transform="matrix(0.56436305,0,0,0.56617938,145.45479,331.59892)"
         d="m 164.60498,817.47644 c 0,26.55763 -21.94324,48.08685 -49.0116,48.08685 -27.068354,0 -49.011593,-21.52922 -49.011593,-48.08685 0,-26.55763 21.943239,-48.08685 49.011593,-48.08685 27.06836,0 49.0116,21.52922 49.0116,48.08685 z"
         sodipodi:ry="48.086849"
         sodipodi:rx="49.011597"
         sodipodi:cy="817.47644"
         sodipodi:cx="115.59338"
         id="path3755"
         style="fill:#000000;fill-opacity:0;fill-rule:evenodd;stroke:#000000;stroke-width:7.07625817999999995;stroke-linecap:butt;stroke-linejoin:round;stroke-miterlimit:4;stroke-opacity:1;stroke-dasharray:28.30503344999999982, 7.07625835999999975;stroke-dashoffset:0"
         sodipodi:type="arc" />
    </a>
    <path
       transform="matrix(0.56462603,0,0,0.51547755,235.28798,373.19641)"
       sodipodi:type="arc"
       style="fill:#000000;fill-opacity:0;fill-rule:evenodd;stroke:#000000;stroke-width:7.41437720999999872;stroke-linecap:butt;stroke-linejoin:round;stroke-miterlimit:4;stroke-opacity:1;stroke-dasharray:29.65750805000000057, 7.41437700999999993;stroke-dashoffset:0"
       id="path3755-3"
       sodipodi:cx="115.59338"
       sodipodi:cy="817.47644"
       sodipodi:rx="49.011597"
       sodipodi:ry="48.086849"
       d="m 164.60498,817.47644 c 0,26.55763 -21.94324,48.08685 -49.0116,48.08685 -27.068354,0 -49.011593,-21.52922 -49.011593,-48.08685 0,-26.55763 21.943239,-48.08685 49.011593,-48.08685 27.06836,0 49.0116,21.52922 49.0116,48.08685 z" />
    <path
       transform="matrix(0.54436181,0,0,0.5865694,327.45554,313.67779)"
       sodipodi:type="arc"
       style="fill:#000000;fill-opacity:0;fill-rule:evenodd;stroke:#000000;stroke-width:7.07874823000000042;stroke-linecap:butt;stroke-linejoin:round;stroke-miterlimit:4;stroke-opacity:1;stroke-dasharray:28.31499286000000026, 7.07874820999999965;stroke-dashoffset:0"
       id="path3755-7"
       sodipodi:cx="115.59338"
       sodipodi:cy="817.47644"
       sodipodi:rx="49.011597"
       sodipodi:ry="48.086849"
       d="m 164.60498,817.47644 c 0,26.55763 -21.94324,48.08685 -49.0116,48.08685 -27.068354,0 -49.011593,-21.52922 -49.011593,-48.08685 0,-26.55763 21.943239,-48.08685 49.011593,-48.08685 27.06836,0 49.0116,21.52922 49.0116,48.08685 z" />
    <path
       style="fill:none;stroke:#000000;stroke-width:1px;stroke-linecap:round;stroke-linejoin:miter;stroke-opacity:1;marker-mid:none;marker-end:url(#Arrow1Lend)"
       d="m 328.22412,794.15508 35.47885,-0.55403"
       id="path3790"
       inkscape:connector-type="polyline"
       inkscape:connector-curvature="3"
       inkscape:connection-start="#path3755-3"
       inkscape:connection-start-point="d4"
       inkscape:connection-end="#path3755-7"
       inkscape:connection-end-point="d4" />
    <path
       style="fill:none;stroke:#000000;stroke-width:1px;stroke-linecap:butt;stroke-linejoin:miter;stroke-opacity:1;marker-end:url(#Arrow1Lend)"
       d="m 238.35172,794.48338 34.53012,0.0576"
       id="path5168"
       inkscape:connector-type="polyline"
       inkscape:connector-curvature="3"
       inkscape:connection-start="#path3755"
       inkscape:connection-start-point="d4"
       inkscape:connection-end="#path3755-3"
       inkscape:connection-end-point="d4" />
    <path
       transform="matrix(0.54436181,0,0,0.5865694,413.74204,311.95356)"
       sodipodi:type="arc"
       style="fill:#000000;fill-opacity:0;fill-rule:evenodd;stroke:#000000;stroke-width:7.07874823000000042;stroke-linecap:butt;stroke-linejoin:round;stroke-miterlimit:4;stroke-opacity:1;stroke-dasharray:28.31499286000000026, 7.07874820999999965;stroke-dashoffset:0"
       id="path3755-7-3"
       sodipodi:cx="115.59338"
       sodipodi:cy="817.47644"
       sodipodi:rx="49.011597"
       sodipodi:ry="48.086849"
       d="m 164.60498,817.47644 c 0,26.55763 -21.94324,48.08685 -49.0116,48.08685 -27.068354,0 -49.011593,-21.52922 -49.011593,-48.08685 0,-26.55763 21.943239,-48.08685 49.011593,-48.08685 27.06836,0 49.0116,21.52922 49.0116,48.08685 z" />
    <path
       style="fill:none;stroke:#000000;stroke-width:1px;stroke-linecap:butt;stroke-linejoin:miter;stroke-opacity:1;marker-end:url(#Arrow1Lend)"
       d="m 417.05554,792.65141 32.93575,-0.65814"
       id="path5376"
       inkscape:connector-type="polyline"
       inkscape:connector-curvature="3"
       inkscape:connection-start="#path3755-7"
       inkscape:connection-start-point="d4"
       inkscape:connection-end="#path3755-7-3"
       inkscape:connection-end-point="d4" />
    <path
       sodipodi:type="arc"
       style="fill:#000000;fill-opacity:0;fill-rule:evenodd;stroke:#000000;stroke-width:7.07625817999999995;stroke-linecap:butt;stroke-linejoin:round;stroke-miterlimit:4;stroke-opacity:1;stroke-dasharray:28.30503344999999982, 7.07625835999999975;stroke-dashoffset:0"
       id="path3755-4"
       sodipodi:cx="115.59338"
       sodipodi:cy="817.47644"
       sodipodi:rx="49.011597"
       sodipodi:ry="48.086849"
       d="m 164.60498,817.47644 c 0,26.55763 -21.94324,48.08685 -49.0116,48.08685 -27.068354,0 -49.011593,-21.52922 -49.011593,-48.08685 0,-26.55763 21.943239,-48.08685 49.011593,-48.08685 27.06836,0 49.0116,21.52922 49.0116,48.08685 z"
       transform="matrix(0.56436305,0,0,0.56617938,144.85417,40.20846)" />
    <path
       transform="matrix(0.56462603,0,0,0.51547755,234.68737,81.80595)"
       sodipodi:type="arc"
       style="fill:#000000;fill-opacity:0;fill-rule:evenodd;stroke:#000000;stroke-width:7.41437720999999872;stroke-linecap:butt;stroke-linejoin:round;stroke-miterlimit:4;stroke-opacity:1;stroke-dasharray:29.65750805000000057, 7.41437700999999993;stroke-dashoffset:0"
       id="path3755-3-1"
       sodipodi:cx="115.59338"
       sodipodi:cy="817.47644"
       sodipodi:rx="49.011597"
       sodipodi:ry="48.086849"
       d="m 164.60498,817.47644 c 0,26.55763 -21.94324,48.08685 -49.0116,48.08685 -27.068354,0 -49.011593,-21.52922 -49.011593,-48.08685 0,-26.55763 21.943239,-48.08685 49.011593,-48.08685 27.06836,0 49.0116,21.52922 49.0116,48.08685 z" />
    <path
       transform="matrix(0.54436181,0,0,0.5865694,326.85493,22.28733)"
       sodipodi:type="arc"
       style="fill:#000000;fill-opacity:0;fill-rule:evenodd;stroke:#000000;stroke-width:7.07874823000000042;stroke-linecap:butt;stroke-linejoin:round;stroke-miterlimit:4;stroke-opacity:1;stroke-dasharray:28.31499286000000026, 7.07874820999999965;stroke-dashoffset:0"
       id="path3755-7-2"
       sodipodi:cx="115.59338"
       sodipodi:cy="817.47644"
       sodipodi:rx="49.011597"
       sodipodi:ry="48.086849"
       d="m 164.60498,817.47644 c 0,26.55763 -21.94324,48.08685 -49.0116,48.08685 -27.068354,0 -49.011593,-21.52922 -49.011593,-48.08685 0,-26.55763 21.943239,-48.08685 49.011593,-48.08685 27.06836,0 49.0116,21.52922 49.0116,48.08685 z" />
    <path
       style="fill:none;stroke:#000000;stroke-width:1px;stroke-linecap:round;stroke-linejoin:miter;stroke-opacity:1;marker-mid:none;marker-end:url(#Arrow1Lend)"
       d="m 327.62351,502.76462 35.47885,-0.55403"
       id="path3790-9"
       inkscape:connector-type="polyline"
       inkscape:connector-curvature="3"
       inkscape:connection-start="#path3755-3-1"
       inkscape:connection-start-point="d4"
       inkscape:connection-end="#path3755-7-2"
       inkscape:connection-end-point="d4" />
    <path
       style="fill:none;stroke:#000000;stroke-width:1px;stroke-linecap:butt;stroke-linejoin:miter;stroke-opacity:1;marker-end:url(#Arrow1Lend)"
       d="m 237.7511,503.09292 34.53013,0.0576"
       id="path5168-5"
       inkscape:connector-type="polyline"
       inkscape:connector-curvature="3"
       inkscape:connection-start="#path3755-4"
       inkscape:connection-start-point="d4"
       inkscape:connection-end="#path3755-3-1"
       inkscape:connection-end-point="d4" />
    <path
       transform="matrix(0.54436181,0,0,0.5865694,413.14143,20.5631)"
       sodipodi:type="arc"
       style="fill:#000000;fill-opacity:0;fill-rule:evenodd;stroke:#000000;stroke-width:7.07874823000000042;stroke-linecap:butt;stroke-linejoin:round;stroke-miterlimit:4;stroke-opacity:1;stroke-dasharray:28.31499286000000026, 7.07874820999999965;stroke-dashoffset:0"
       id="path3755-7-3-0"
       sodipodi:cx="115.59338"
       sodipodi:cy="817.47644"
       sodipodi:rx="49.011597"
       sodipodi:ry="48.086849"
       d="m 164.60498,817.47644 c 0,26.55763 -21.94324,48.08685 -49.0116,48.08685 -27.068354,0 -49.011593,-21.52922 -49.011593,-48.08685 0,-26.55763 21.943239,-48.08685 49.011593,-48.08685 27.06836,0 49.0116,21.52922 49.0116,48.08685 z" />
    <path
       style="fill:none;stroke:#000000;stroke-width:1px;stroke-linecap:butt;stroke-linejoin:miter;stroke-opacity:1;marker-end:url(#Arrow1Lend)"
       d="m 416.45493,501.26095 32.93575,-0.65814"
       id="path5376-8"
       inkscape:connector-type="polyline"
       inkscape:connector-curvature="3"
       inkscape:connection-start="#path3755-7-2"
       inkscape:connection-start-point="d4"
       inkscape:connection-end="#path3755-7-3-0"
       inkscape:connection-end-point="d4" />
    <path
       sodipodi:type="arc"
       style="fill:#e8e8e8;fill-opacity:1;fill-rule:evenodd;stroke:#000000;stroke-width:1px;stroke-linecap:butt;stroke-linejoin:miter;stroke-opacity:1"
       id="path5810"
       sodipodi:cx="621.07843"
       sodipodi:cy="634.22491"
       sodipodi:rx="16.17647"
       sodipodi:ry="19.117647"
       d="m 637.2549,634.22491 c 0,10.55839 -7.24245,19.11765 -16.17647,19.11765 -8.93402,0 -16.17647,-8.55926 -16.17647,-19.11765 0,-10.55838 7.24245,-19.11764 16.17647,-19.11764 8.93402,0 16.17647,8.55926 16.17647,19.11764 z"
       transform="translate(-2,18)" />
    <path
       sodipodi:type="arc"
       style="fill:#e8e8e8;fill-opacity:1;fill-rule:evenodd;stroke:#000000;stroke-width:1px;stroke-linecap:butt;stroke-linejoin:miter;stroke-opacity:1"
       id="path5812"
       sodipodi:cx="623.03925"
       sodipodi:cy="691.08765"
       sodipodi:rx="15.196078"
       sodipodi:ry="17.156862"
       d="m 638.23532,691.08765 c 0,9.47547 -6.80351,17.15686 -15.19607,17.15686 -8.39257,0 -15.19608,-7.68139 -15.19608,-17.15686 0,-9.47548 6.80351,-17.15687 15.19608,-17.15687 8.39256,0 15.19607,7.68139 15.19607,17.15687 z"
       transform="translate(-2.0392157,24.352941)" />
    <path
       sodipodi:type="arc"
       style="fill:#e8e8e8;fill-opacity:1;fill-rule:evenodd;stroke:#000000;stroke-width:1px;stroke-linecap:butt;stroke-linejoin:miter;stroke-opacity:1"
       id="path5814"
       sodipodi:cx="620.09802"
       sodipodi:cy="746.47986"
       sodipodi:rx="18.137255"
       sodipodi:ry="18.627451"
       d="m 638.23528,746.47986 c 0,10.28766 -8.12033,18.62745 -18.13726,18.62745 -10.01693,0 -18.13725,-8.33979 -18.13725,-18.62745 0,-10.28766 8.12032,-18.62745 18.13725,-18.62745 10.01693,0 18.13726,8.33979 18.13726,18.62745 z"
       transform="translate(0,32)" />
    <path
       style="fill:none;stroke:#000000;stroke-width:1px;stroke-linecap:butt;stroke-linejoin:miter;stroke-opacity:1;marker-end:url(#marker5766)"
       d="m 621.0665,670.91119 -0.0166,26.58823"
       id="path5816"
       inkscape:connector-type="polyline"
       inkscape:connector-curvature="3" />
    <path
       style="fill:none;stroke:#000000;stroke-width:1px;stroke-linecap:butt;stroke-linejoin:miter;stroke-opacity:1;marker-end:url(#marker5766)"
       d="m 619.32575,732.24152 0.4612,27.61357"
       id="path6010"
       inkscape:connector-type="polyline"
       inkscape:connector-curvature="3"
       inkscape:connection-end-point="d4"
       inkscape:connection-end="#path5814" />
    <path
       style="fill:none;stroke:#000000;stroke-width:1px;stroke-linecap:butt;stroke-linejoin:miter;stroke-opacity:1;marker-start:url(#Arrow1Lstart);marker-end:url(#marker5766)"
       d="M 236.77503,785.35415 603.55749,657.62976"
       id="path6597"
       inkscape:connector-type="polyline"
       inkscape:connector-curvature="0"
       inkscape:connection-start="#a6593"
       inkscape:connection-start-point="d4"
       inkscape:connection-end="#path5810"
       inkscape:connection-end-point="d4" />
    <path
       style="fill:none;stroke:#000000;stroke-width:1px;stroke-linecap:butt;stroke-linejoin:miter;stroke-opacity:1;marker-end:url(#marker5766)"
       d="M 210.63531,767.2115 210.14692,530.27249"
       id="path6791"
       inkscape:connector-type="polyline"
       inkscape:connector-curvature="0"
       inkscape:connection-start="#a6593"
       inkscape:connection-start-point="d4"
       inkscape:connection-end="#path3755-4"
       inkscape:connection-end-point="d4" />
    <path
       style="fill:none;stroke:#000000;stroke-width:1px;stroke-linecap:butt;stroke-linejoin:miter;stroke-opacity:1;marker-start:url(#Arrow1Lstart);marker-end:url(#marker5766)"
       d="m 236.03459,512.50976 367.5827,134.07571"
       id="path6793"
       inkscape:connector-type="polyline"
       inkscape:connector-curvature="0"
       inkscape:connection-start="#path3755-4"
       inkscape:connection-start-point="d4"
       inkscape:connection-end="#path5810"
       inkscape:connection-end-point="d4" />
    <path
       style="fill:none;stroke:#000000;stroke-width:1px;stroke-linecap:butt;stroke-linejoin:miter;stroke-opacity:1;marker-start:url(#Arrow1Lstart);marker-end:url(#marker5766)"
       d="m 503.25102,789.05437 98.77867,-8.93935"
       id="path7179"
       inkscape:connector-type="polyline"
       inkscape:connector-curvature="0"
       inkscape:connection-start="#path3755-7-3"
       inkscape:connection-start-point="d4"
       inkscape:connection-end="#path5814"
       inkscape:connection-end-point="d4" />
    <path
       style="fill:none;stroke:#000000;stroke-width:1px;stroke-linecap:butt;stroke-linejoin:miter;stroke-opacity:1;marker-end:url(#marker5766)"
       d="M 476.60853,763.25402 476.12419,528.27597"
       id="path7181"
       inkscape:connector-type="polyline"
       inkscape:connector-curvature="0"
       inkscape:connection-start="#path3755-7-3"
       inkscape:connection-start-point="d4"
       inkscape:connection-end="#path3755-7-3-0"
       inkscape:connection-end-point="d4" />
    <path
       style="fill:none;stroke:#000000;stroke-width:1px;stroke-linecap:butt;stroke-linejoin:miter;stroke-opacity:1;marker-start:url(#Arrow1Lstart);marker-end:url(#marker5766)"
       d="M 488.87089,524.82119 611.58628,762.02687"
       id="path7183"
       inkscape:connector-type="polyline"
       inkscape:connector-curvature="0"
       inkscape:connection-start="#path3755-7-3-0"
       inkscape:connection-start-point="d4"
       inkscape:connection-end="#path5814"
       inkscape:connection-end-point="d4" />
    <text
       xml:space="preserve"
       style="font-size:40px;font-style:normal;font-weight:normal;line-height:125%;letter-spacing:0px;word-spacing:0px;fill:#000000;fill-opacity:1;stroke:none;font-family:Sans"
       x="432.61014"
       y="743.5387"
       id="text7377"
       sodipodi:linespacing="125%"><tspan
         sodipodi:role="line"
         x="432.61014"
         y="743.5387"
         style="font-size:16px;text-align:center;text-anchor:middle"
         id="tspan7393">Employee</tspan><tspan
         sodipodi:role="line"
         x="432.61014"
         y="763.5387"
         style="font-size:16px;text-align:center;text-anchor:middle"
         id="tspan7403">Records</tspan></text>
    <text
       xml:space="preserve"
       style="font-size:40px;font-style:normal;font-weight:normal;line-height:125%;letter-spacing:0px;word-spacing:0px;fill:#000000;fill-opacity:1;stroke:none;font-family:Sans"
       x="613.68628"
       y="658.36218"
       id="text7381"
       sodipodi:linespacing="125%"><tspan
         sodipodi:role="line"
         id="tspan7383"
         x="613.68628"
         y="658.36218"
         style="font-size:20px">1</tspan></text>
    <text
       xml:space="preserve"
       style="font-size:40px;font-style:normal;font-weight:normal;line-height:125%;letter-spacing:0px;word-spacing:0px;fill:#000000;fill-opacity:1;stroke:none;font-family:Sans"
       x="615.68628"
       y="724.12689"
       id="text7385"
       sodipodi:linespacing="125%"><tspan
         sodipodi:role="line"
         id="tspan7387"
         x="615.68628"
         y="724.12689"
         style="font-size:20px">2</tspan></text>
    <text
       xml:space="preserve"
       style="font-size:40px;font-style:normal;font-weight:normal;line-height:125%;letter-spacing:0px;word-spacing:0px;fill:#000000;fill-opacity:1;stroke:none;font-family:Sans"
       x="612.66669"
       y="785.77393"
       id="text7389"
       sodipodi:linespacing="125%"><tspan
         sodipodi:role="line"
         id="tspan7391"
         x="612.66669"
         y="785.77393"
         style="font-size:20px">3</tspan></text>
    <text
       xml:space="preserve"
       style="font-size:40px;font-style:normal;font-weight:normal;line-height:125%;letter-spacing:0px;word-spacing:0px;fill:#000000;fill-opacity:1;stroke:none;font-family:Sans"
       x="619.72638"
       y="573.93079"
       id="text7397"
       sodipodi:linespacing="125%"><tspan
         sodipodi:role="line"
         id="tspan7399"
         x="619.72638"
         y="573.93079"
         style="font-size:16px;text-align:center;text-anchor:middle">Department Id</tspan><tspan
         sodipodi:role="line"
         x="619.72638"
         y="593.93079"
         id="tspan7401"
         style="font-size:16px;text-align:center;text-anchor:middle">Field</tspan></text>
    <text
       xml:space="preserve"
       style="font-size:40px;font-style:normal;font-weight:normal;line-height:125%;letter-spacing:0px;word-spacing:0px;fill:#000000;fill-opacity:1;stroke:none;font-family:Sans"
       x="417.91513"
       y="542.91528"
       id="text7377-3"
       sodipodi:linespacing="125%"><tspan
         sodipodi:role="line"
         x="417.91513"
         y="542.91528"
         style="font-size:16px;text-align:center;text-anchor:middle"
         id="tspan7403-2">Department</tspan><tspan
         sodipodi:role="line"
         x="417.91513"
         y="562.91528"
         style="font-size:16px;text-align:center;text-anchor:middle"
         id="tspan7431">Records</tspan></text>
    <path
       sodipodi:type="arc"
       style="fill:#ffffff;fill-opacity:0;fill-rule:evenodd;stroke:#000000;stroke-width:1px;stroke-linecap:butt;stroke-linejoin:miter;stroke-opacity:1"
       id="path5808-4"
       sodipodi:cx="88.235291"
       sodipodi:cy="699.91119"
       sodipodi:rx="46.07843"
       sodipodi:ry="122.05882"
       d="m 134.31372,699.91119 c 0,67.41123 -20.63002,122.05883 -46.078429,122.05883 -25.448415,0 -46.078431,-54.6476 -46.078431,-122.05883 0,-67.41122 20.630016,-122.05882 46.078431,-122.05882 25.448409,0 46.078429,54.6476 46.078429,122.05882 z"
       transform="matrix(3.424588,0,0,0.34502514,42.43833,664.50267)" />
    <path
       sodipodi:type="arc"
       style="fill:#e8e8e8;fill-opacity:1;fill-rule:evenodd;stroke:#000000;stroke-width:1;stroke-linecap:butt;stroke-linejoin:miter;stroke-miterlimit:4;stroke-opacity:1;stroke-dasharray:none"
       id="path7451"
       sodipodi:cx="94.607841"
       sodipodi:cy="950.40143"
       sodipodi:rx="19.117647"
       sodipodi:ry="17.647058"
       d="m 113.72549,950.40143 c 0,9.7462 -8.55926,17.64706 -19.117649,17.64706 -10.558384,0 -19.117647,-7.90086 -19.117647,-17.64706 0,-9.7462 8.559263,-17.64706 19.117647,-17.64706 10.558389,0 19.117649,7.90086 19.117649,17.64706 z"
       transform="translate(124,-44)" />
    <path
       transform="translate(372.09514,-45.75206)"
       sodipodi:type="arc"
       style="fill:#e8e8e8;fill-opacity:1;fill-rule:evenodd;stroke:#000000;stroke-width:1;stroke-linecap:butt;stroke-linejoin:miter;stroke-miterlimit:4;stroke-opacity:1;stroke-dasharray:none"
       id="path7451-0"
       sodipodi:cx="94.607841"
       sodipodi:cy="950.40143"
       sodipodi:rx="19.117647"
       sodipodi:ry="17.647058"
       d="m 113.72549,950.40143 c 0,9.7462 -8.55926,17.64706 -19.117649,17.64706 -10.558384,0 -19.117647,-7.90086 -19.117647,-17.64706 0,-9.7462 8.559263,-17.64706 19.117647,-17.64706 10.558389,0 19.117649,7.90086 19.117649,17.64706 z" />
    <path
       transform="translate(202.76471,-44.392187)"
       sodipodi:type="arc"
       style="fill:#e8e8e8;fill-opacity:1;fill-rule:evenodd;stroke:#000000;stroke-width:1;stroke-linecap:butt;stroke-linejoin:miter;stroke-miterlimit:4;stroke-opacity:1;stroke-dasharray:none"
       id="path7451-2"
       sodipodi:cx="94.607841"
       sodipodi:cy="950.40143"
       sodipodi:rx="19.117647"
       sodipodi:ry="17.647058"
       d="m 113.72549,950.40143 c 0,9.7462 -8.55926,17.64706 -19.117649,17.64706 -10.558384,0 -19.117647,-7.90086 -19.117647,-17.64706 0,-9.7462 8.559263,-17.64706 19.117647,-17.64706 10.558389,0 19.117649,7.90086 19.117649,17.64706 z" />
    <path
       transform="translate(285.19608,-44.980422)"
       sodipodi:type="arc"
       style="fill:#e8e8e8;fill-opacity:1;fill-rule:evenodd;stroke:#000000;stroke-width:1;stroke-linecap:butt;stroke-linejoin:miter;stroke-miterlimit:4;stroke-opacity:1;stroke-dasharray:none"
       id="path7451-9"
       sodipodi:cx="94.607841"
       sodipodi:cy="950.40143"
       sodipodi:rx="19.117647"
       sodipodi:ry="17.647058"
       d="m 113.72549,950.40143 c 0,9.7462 -8.55926,17.64706 -19.117649,17.64706 -10.558384,0 -19.117647,-7.90086 -19.117647,-17.64706 0,-9.7462 8.559263,-17.64706 19.117647,-17.64706 10.558389,0 19.117649,7.90086 19.117649,17.64706 z" />
    <path
       style="fill:none;stroke:#000000;stroke-width:1px;stroke-linecap:butt;stroke-linejoin:miter;stroke-opacity:1;marker-end:url(#Arrow2Lend)"
       d="m 237.72522,906.30624 40.52996,-0.20181"
       id="path7495"
       inkscape:connector-type="polyline"
       inkscape:connector-curvature="0"
       inkscape:connection-start="#path7451"
       inkscape:connection-start-point="d4"
       inkscape:connection-end="#path7451-2"
       inkscape:connection-end-point="d4" />
    <path
       style="fill:none;stroke:#000000;stroke-width:1px;stroke-linecap:butt;stroke-linejoin:miter;stroke-opacity:1;marker-end:url(#Arrow2Lend)"
       d="m 316.48964,905.87282 44.19719,-0.31539"
       id="path7497"
       inkscape:connector-type="polyline"
       inkscape:connector-curvature="0"
       inkscape:connection-start="#path7451-2"
       inkscape:connection-start-point="d4"
       inkscape:connection-end="#path7451-9"
       inkscape:connection-end-point="d4" />
    <path
       style="fill:none;stroke:#000000;stroke-width:1px;stroke-linecap:butt;stroke-linejoin:miter;stroke-opacity:1;marker-end:url(#Arrow2Lend)"
       d="m 398.9207,905.25125 48.6655,-0.43213"
       id="path7499"
       inkscape:connector-type="polyline"
       inkscape:connector-curvature="0"
       inkscape:connection-start="#path7451-9"
       inkscape:connection-start-point="d4"
       inkscape:connection-end="#path7451-0"
       inkscape:connection-end-point="d4" />
    <path
       style="font-size:40px;font-style:normal;font-weight:normal;line-height:125%;letter-spacing:0px;word-spacing:0px;fill:#000000;fill-opacity:1;stroke:none;font-family:Sans"
       d="m 380.4375,895.5625 c -0.57943,10e-6 -1.21745,0.0521 -1.875,0.15625 -0.65105,0.10418 -1.34505,0.26043 -2.09375,0.46875 l 0,1.75 c 0.74218,-0.24738 1.41276,-0.41405 2.03125,-0.53125 0.61848,-0.11717 1.20963,-0.18749 1.75,-0.1875 0.98958,10e-6 1.7539,0.19012 2.28125,0.59375 0.53385,0.39715 0.81249,0.97006 0.8125,1.71875 -10e-6,0.72918 -0.26694,1.29688 -0.78125,1.6875 -0.51433,0.38412 -1.2487,0.59376 -2.21875,0.59375 l -1.78125,0 0,1.59375 1.6875,0 c 1.07421,10e-6 1.90103,0.26173 2.5,0.75 0.60546,0.48178 0.90624,1.14063 0.90625,2 -10e-6,0.93099 -0.31772,1.63672 -0.96875,2.125 -0.64454,0.48828 -1.57553,0.75 -2.8125,0.75 -0.70964,0 -1.38021,-0.0872 -2.03125,-0.25 -0.65104,-0.16276 -1.26563,-0.39974 -1.8125,-0.71875 l 0,1.90625 c 0.6901,0.24089 1.35547,0.41406 2,0.53125 0.65104,0.1237 1.29427,0.1875 1.90625,0.1875 1.82291,0 3.22916,-0.39974 4.21875,-1.1875 0.98957,-0.78776 1.46874,-1.90495 1.46875,-3.34375 -10e-6,-0.93749 -0.24741,-1.70572 -0.78125,-2.34375 -0.52735,-0.63801 -1.27475,-1.07942 -2.21875,-1.28125 0.85286,-0.21484 1.5065,-0.60286 1.96875,-1.15625 0.46223,-0.55989 0.68749,-1.22395 0.6875,-2.03125 -10e-6,-1.15884 -0.44011,-2.0729 -1.3125,-2.75 -0.8724,-0.68358 -2.03386,-1.03124 -3.53125,-1.03125 z m 87.3125,0.25 -6.0625,9.25 0,1.90625 6.59375,0 0,3.4375 1.9375,0 0,-3.4375 2.09375,0 0,-1.65625 -2.09375,0 0,-9.5 -2.46875,0 z m 0.53125,1.71875 0,7.78125 -5,0 5,-7.78125 z m -248.90625,0.375 -3.5,0.6875 0,1.8125 3.5,-0.71875 0,11.125 -3.21875,0 0,1.65625 8.40625,0 0,-1.65625 -3.21875,0 0,-12.90625 -1.96875,0 z M 299.03125,898.5 c -0.57292,10e-6 -1.1849,0.0873 -1.875,0.25 -0.69011,0.16277 -1.42448,0.39975 -2.21875,0.71875 l 0,2 c 0.78125,-0.43619 1.5039,-0.78514 2.1875,-1 0.6901,-0.21483 1.35026,-0.31249 1.96875,-0.3125 0.87239,10e-6 1.55338,0.26173 2.09375,0.75 0.54687,0.48829 0.84374,1.10027 0.84375,1.875 -10e-6,0.47527 -0.1211,0.97397 -0.375,1.46875 -0.2474,0.48829 -0.71225,1.07162 -1.34375,1.78125 -0.33204,0.37761 -1.14193,1.22266 -2.4375,2.53125 -1.28907,1.30209 -2.3138,2.35026 -3.0625,3.125 l 0,1.65625 9.28125,0 0,-1.65625 -6.90625,0 c 1.58854,-1.62109 2.8151,-2.88281 3.6875,-3.78125 0.87239,-0.90494 1.39973,-1.46744 1.5625,-1.65625 0.59244,-0.72916 0.99739,-1.34114 1.21875,-1.875 0.22785,-0.54036 0.34374,-1.11978 0.34375,-1.71875 -10e-6,-1.26301 -0.44532,-2.27603 -1.34375,-3.03125 -0.89845,-0.75519 -2.11459,-1.12499 -3.625,-1.125 z"
       id="text7693"
       inkscape:connector-curvature="0" />
    <path
       style="fill:none;stroke:#000000;stroke-width:1px;stroke-linecap:butt;stroke-linejoin:miter;stroke-opacity:1;marker-start:url(#Arrow1Lstart);marker-end:url(#marker5766)"
       d="m 212.61185,821.59841 4.75086,67.19279"
       id="path8099"
       inkscape:connector-type="polyline"
       inkscape:connector-curvature="0"
       inkscape:connection-start="#a6593"
       inkscape:connection-start-point="d4"
       inkscape:connection-end="#path7451"
       inkscape:connection-end-point="d4" />
    <path
       style="fill:none;stroke:#000000;stroke-width:1px;stroke-linecap:butt;stroke-linejoin:miter;stroke-opacity:1;marker-start:url(#Arrow1Lstart);marker-end:url(#marker5766)"
       d="m 299.84725,819.3669 -1.97083,69.00129"
       id="path8101"
       inkscape:connector-type="polyline"
       inkscape:connector-curvature="0"
       inkscape:connection-start="#path3755-3"
       inkscape:connection-start-point="d4"
       inkscape:connection-end="#path7451-2"
       inkscape:connection-end-point="d4" />
    <path
       style="fill:none;stroke:#000000;stroke-width:1px;stroke-linecap:butt;stroke-linejoin:miter;stroke-opacity:1;marker-start:url(#Arrow1Lstart);marker-end:url(#marker5766)"
       d="m 387.73514,821.25386 -6.27446,66.58543"
       id="path8103"
       inkscape:connector-type="polyline"
       inkscape:connector-curvature="0"
       inkscape:connection-start="#path3755-7"
       inkscape:connection-start-point="d4"
       inkscape:connection-end="#path7451-9"
       inkscape:connection-end-point="d4" />
    <path
       style="fill:none;stroke:#000000;stroke-width:1px;stroke-linecap:butt;stroke-linejoin:miter;stroke-opacity:1;marker-start:url(#Arrow1Lstart);marker-end:url(#marker5766)"
       d="m 474.19427,819.547 -5.9429,67.51235"
       id="path8105"
       inkscape:connector-type="polyline"
       inkscape:connector-curvature="0"
       inkscape:connection-start="#path3755-7-3"
       inkscape:connection-start-point="d4"
       inkscape:connection-end="#path7451-0"
       inkscape:connection-end-point="d4" />
    <text
       xml:space="preserve"
       style="font-size:40px;font-style:normal;font-weight:normal;line-height:125%;letter-spacing:0px;word-spacing:0px;fill:#000000;fill-opacity:1;stroke:none;font-family:Sans"
       x="557.47412"
       y="898.44061"
       id="text8496"
       sodipodi:linespacing="125%"><tspan
         sodipodi:role="line"
         id="tspan8498"
         x="560.65771"
         y="898.44061"
         style="font-size:20px;text-align:center;text-anchor:middle">Employee </tspan><tspan
         sodipodi:role="line"
         x="557.47412"
         y="923.44061"
         id="tspan8500"
         style="font-size:20px;text-align:center;text-anchor:middle">ID Field</tspan></text>
    <path
       sodipodi:type="arc"
       style="fill:#ffffff;fill-opacity:0;fill-rule:evenodd;stroke:#000000;stroke-width:1px;stroke-linecap:butt;stroke-linejoin:miter;stroke-opacity:1"
       id="path8502"
       sodipodi:cx="356.86273"
       sodipodi:cy="392.55826"
       sodipodi:rx="175.49019"
       sodipodi:ry="40.196079"
       d="m 532.35292,392.55826 c 0,22.19968 -78.56963,40.19608 -175.49019,40.19608 -96.92055,0 -175.49019,-17.9964 -175.49019,-40.19608 0,-22.19968 78.56964,-40.19608 175.49019,-40.19608 96.92056,0 175.49019,17.9964 175.49019,40.19608 z"
       transform="matrix(1.5292694,0,0,1.4936393,-144.17063,-224.3116)" />
    <path
       sodipodi:type="arc"
       style="fill:#f1f1f1;fill-opacity:1;fill-rule:evenodd;stroke:#000000;stroke-width:1px;stroke-linecap:butt;stroke-linejoin:miter;stroke-opacity:1"
       id="path8506"
       sodipodi:cx="245.09804"
       sodipodi:cy="416.57788"
       sodipodi:rx="33.333332"
       sodipodi:ry="28.921568"
       d="m 278.43137,416.57788 c 0,15.97294 -14.92384,28.92157 -33.33333,28.92157 -18.40949,0 -33.33333,-12.94863 -33.33333,-28.92157 0,-15.97294 14.92384,-28.92157 33.33333,-28.92157 18.40949,0 33.33333,12.94863 33.33333,28.92157 z"
       transform="matrix(2.3592946,0,0,0.94171864,-336.03671,-29.810383)" />
    <path
       sodipodi:type="arc"
       style="fill:#f1f1f1;fill-opacity:1;fill-rule:evenodd;stroke:#000000;stroke-width:1px;stroke-linecap:butt;stroke-linejoin:miter;stroke-opacity:1"
       id="path8506-0"
       sodipodi:cx="245.09804"
       sodipodi:cy="416.57788"
       sodipodi:rx="33.333332"
       sodipodi:ry="28.921568"
       d="m 278.43137,416.57788 c 0,15.97294 -14.92384,28.92157 -33.33333,28.92157 -18.40949,0 -33.33333,-12.94863 -33.33333,-28.92157 0,-15.97294 14.92384,-28.92157 33.33333,-28.92157 18.40949,0 33.33333,12.94863 33.33333,28.92157 z"
       transform="matrix(2.3592946,0,0,0.94171864,-33.029264,-30.789043)" />
    <path
       style="fill:none;stroke:#000000;stroke-width:1px;stroke-linecap:butt;stroke-linejoin:miter;stroke-opacity:1;marker-mid:none;marker-end:url(#marker5766)"
       d="M 320.86157,362.23478 466.58941,361.7641"
       id="path8722"
       inkscape:connector-type="polyline"
       inkscape:connector-curvature="0"
       inkscape:connection-start="#path8506"
       inkscape:connection-start-point="d4"
       inkscape:connection-end="#path8506-0"
       inkscape:connection-end-point="d4" />
    <text
       xml:space="preserve"
       style="font-size:20px;font-style:normal;font-weight:normal;text-align:center;line-height:125%;letter-spacing:0px;word-spacing:0px;text-anchor:middle;fill:#000000;fill-opacity:1;stroke:none;font-family:Sans"
       x="239.2157"
       y="372.95041"
       id="text9112"
       sodipodi:linespacing="125%"><tspan
         sodipodi:role="line"
         id="tspan9114"
         x="239.2157"
         y="372.95041"
         style="font-size:24px">Circuit</tspan></text>
    <text
       xml:space="preserve"
       style="font-size:20px;font-style:normal;font-weight:normal;text-align:center;line-height:125%;letter-spacing:0px;word-spacing:0px;text-anchor:middle;fill:#000000;fill-opacity:1;stroke:none;font-family:Sans"
       x="548.03925"
       y="367.06805"
       id="text9116"
       sodipodi:linespacing="125%"><tspan
         sodipodi:role="line"
         id="tspan9118"
         x="548.03925"
         y="367.06805"
         style="font-size:24px">Core</tspan></text>
    <text
       xml:space="preserve"
       style="font-size:20px;font-style:normal;font-weight:normal;text-align:center;line-height:125%;letter-spacing:0px;word-spacing:0px;text-anchor:middle;fill:#000000;fill-opacity:1;stroke:none;font-family:Sans"
       x="396.11765"
       y="323.77393"
       id="text9120"
       sodipodi:linespacing="125%"><tspan
         sodipodi:role="line"
         id="tspan9122"
         x="396.11765"
         y="323.77393">Department</tspan><tspan
         sodipodi:role="line"
         x="396.11765"
         y="348.77393"
         id="tspan10102">Type Field</tspan></text>
    <path
       style="fill:none;stroke:#000000;stroke-width:1px;stroke-linecap:butt;stroke-linejoin:miter;stroke-opacity:1;marker-start:url(#Arrow1Lstart);marker-end:url(#marker5766)"
       d="m 216.16401,476.47931 19.85083,-86.83814"
       id="path9124"
       inkscape:connector-type="polyline"
       inkscape:connector-curvature="0"
       inkscape:connection-start="#path3755-4"
       inkscape:connection-start-point="d4"
       inkscape:connection-end="#path8506"
       inkscape:connection-end-point="d4" />
    <path
       style="fill:none;stroke:#000000;stroke-width:1px;stroke-linecap:butt;stroke-linejoin:miter;stroke-opacity:1;marker-start:url(#Arrow1Lstart);marker-end:url(#marker5766)"
       d="m 290.40567,479.92421 -37.1187,-90.46694"
       id="path9126"
       inkscape:connector-type="polyline"
       inkscape:connector-curvature="0"
       inkscape:connection-start="#path3755-3-1"
       inkscape:connection-start-point="d4"
       inkscape:connection-end="#path8506"
       inkscape:connection-end-point="d4" />
    <path
       style="fill:none;stroke:#000000;stroke-width:1px;stroke-linecap:butt;stroke-linejoin:miter;stroke-opacity:1;marker-start:url(#Arrow1Lstart);marker-end:url(#marker5766)"
       d="M 410.07233,483.48099 517.04484,386.9448"
       id="path9128"
       inkscape:connector-type="polyline"
       inkscape:connector-curvature="0"
       inkscape:connection-start="#path3755-7-2"
       inkscape:connection-start-point="d4"
       inkscape:connection-end="#path8506-0"
       inkscape:connection-end-point="d4" />
    <path
       style="fill:none;stroke:#000000;stroke-width:1px;stroke-linecap:butt;stroke-linejoin:miter;stroke-opacity:1;marker-start:url(#Arrow1Lstart);marker-end:url(#marker5766)"
       d="m 488.52049,475.11888 43.31018,-86.76649"
       id="path9130"
       inkscape:connector-type="polyline"
       inkscape:connector-curvature="0"
       inkscape:connection-start="#path3755-7-3-0"
       inkscape:connection-start-point="d4"
       inkscape:connection-end="#path8506-0"
       inkscape:connection-end-point="d4" />
    <text
       xml:space="preserve"
       style="font-size:20px;font-style:normal;font-weight:normal;text-align:center;line-height:125%;letter-spacing:0px;word-spacing:0px;text-anchor:middle;fill:#000000;fill-opacity:1;stroke:none;font-family:Sans"
       x="329.41177"
       y="625.8916"
       id="text10104"
       sodipodi:linespacing="125%"><tspan
         sodipodi:role="line"
         id="tspan10106"
         x="329.41177"
         y="625.8916">Child : Employee</tspan><tspan
         sodipodi:role="line"
         x="329.41177"
         y="650.8916"
         id="tspan10108">Parent : Department</tspan><tspan
         sodipodi:role="line"
         x="332.59537"
         y="675.8916"
         id="tspan10110">Employee.DeptID ∈ </tspan><tspan
         sodipodi:role="line"
         x="329.41177"
         y="700.8916"
         id="tspan10112">Department.ID</tspan></text>
    <path
       sodipodi:type="arc"
       style="fill:#e0e0e0;fill-opacity:1;fill-rule:evenodd;stroke:#000000;stroke-width:1px;stroke-linecap:butt;stroke-linejoin:miter;stroke-opacity:1"
       id="path10116"
       sodipodi:cx="234.31372"
       sodipodi:cy="978.34259"
       sodipodi:rx="17.647058"
       sodipodi:ry="15.196078"
       d="m 251.96078,978.34259 c 0,8.39256 -7.90086,15.19608 -17.64706,15.19608 -9.7462,0 -17.64706,-6.80352 -17.64706,-15.19608 0,-8.39256 7.90086,-15.19608 17.64706,-15.19608 9.7462,0 17.64706,6.80352 17.64706,15.19608 z" />
    <path
       transform="translate(1.1717304,47.987763)"
       sodipodi:type="arc"
       style="fill:#000000;fill-opacity:0;fill-rule:evenodd;stroke:#000000;stroke-width:4;stroke-linecap:butt;stroke-linejoin:miter;stroke-miterlimit:4;stroke-opacity:1;stroke-dasharray:12, 4;stroke-dashoffset:0"
       id="path10116-8"
       sodipodi:cx="234.31372"
       sodipodi:cy="978.34259"
       sodipodi:rx="17.647058"
       sodipodi:ry="15.196078"
       d="m 251.96078,978.34259 c 0,8.39256 -7.90086,15.19608 -17.64706,15.19608 -9.7462,0 -17.64706,-6.80352 -17.64706,-15.19608 0,-8.39256 7.90086,-15.19608 17.64706,-15.19608 9.7462,0 17.64706,6.80352 17.64706,15.19608 z" />
    <text
       xml:space="preserve"
       style="font-size:20px;font-style:normal;font-weight:normal;text-align:center;line-height:125%;letter-spacing:0px;word-spacing:0px;text-anchor:middle;fill:#000000;fill-opacity:1;stroke:none;font-family:Sans"
       x="375.4902"
       y="988.63666"
       id="text10136"
       sodipodi:linespacing="125%"><tspan
         sodipodi:role="line"
         id="tspan10138"
         x="375.4902"
         y="988.63666"
         style="font-size:28px">: Attribute Nodes</tspan></text>
    <text
       xml:space="preserve"
       style="font-size:20px;font-style:normal;font-weight:normal;text-align:center;line-height:125%;letter-spacing:0px;word-spacing:0px;text-anchor:middle;fill:#000000;fill-opacity:1;stroke:none;font-family:Sans"
       x="351.56863"
       y="1036.7151"
       id="text10140"
       sodipodi:linespacing="125%"><tspan
         sodipodi:role="line"
         id="tspan10142"
         x="351.56863"
         y="1036.7151"
         style="font-size:28px">: Main Nodes</tspan></text>
  </g>
</svg>
