<?xml version="1.0" encoding="UTF-8" standalone="no"?>
<svg
   xmlns:dc="http://purl.org/dc/elements/1.1/"
   xmlns:cc="http://creativecommons.org/ns#"
   xmlns:rdf="http://www.w3.org/1999/02/22-rdf-syntax-ns#"
   xmlns:svg="http://www.w3.org/2000/svg"
   xmlns="http://www.w3.org/2000/svg"
   xmlns:xlink="http://www.w3.org/1999/xlink"
   xmlns:sodipodi="http://sodipodi.sourceforge.net/DTD/sodipodi-0.dtd"
   xmlns:inkscape="http://www.inkscape.org/namespaces/inkscape"
   width="600"
   height="480"
   viewBox="0 0 600 480"
   id="svg2"
   version="1.1"
   inkscape:version="0.48.4 r9939"
   sodipodi:docname="time.svg">
  <metadata
     id="metadata165">
    <rdf:RDF>
      <cc:Work
         rdf:about="">
        <dc:format>image/svg+xml</dc:format>
        <dc:type
           rdf:resource="http://purl.org/dc/dcmitype/StillImage" />
      </cc:Work>
    </rdf:RDF>
  </metadata>
  <defs
     id="defs163" />
  <sodipodi:namedview
     pagecolor="#ffffff"
     bordercolor="#666666"
     borderopacity="1"
     objecttolerance="10"
     gridtolerance="10"
     guidetolerance="10"
     inkscape:pageopacity="0"
     inkscape:pageshadow="2"
     inkscape:window-width="1366"
     inkscape:window-height="744"
     id="namedview161"
     showgrid="false"
     inkscape:zoom="1.1854167"
     inkscape:cx="247.10236"
     inkscape:cy="240"
     inkscape:window-x="0"
     inkscape:window-y="24"
     inkscape:window-maximized="1"
     inkscape:current-layer="svg2" />
  <title
     id="title4">Gnuplot</title>
  <desc
     id="desc6">Produced by GNUPLOT 4.6 patchlevel 4 </desc>
  <g
     id="gnuplot_canvas">
    <rect
       x="0"
       y="0"
       width="600"
       height="480"
       fill="none"
       id="rect9" />
    <defs
       id="defs11">
      <circle
         id="gpDot"
         r="0.5"
         stroke-width="0.5" />
      <path
         id="gpPt0"
         stroke-width="0.222"
         stroke="currentColor"
         d="M-1,0 h2 M0,-1 v2" />
      <path
         id="gpPt1"
         stroke-width="0.222"
         stroke="currentColor"
         d="M-1,-1 L1,1 M1,-1 L-1,1" />
      <path
         id="gpPt2"
         stroke-width="0.222"
         stroke="currentColor"
         d="M-1,0 L1,0 M0,-1 L0,1 M-1,-1 L1,1 M-1,1 L1,-1" />
      <rect
         id="gpPt3"
         stroke-width="0.222"
         stroke="currentColor"
         x="-1"
         y="-1"
         width="2"
         height="2" />
      <rect
         id="gpPt4"
         stroke-width="0.222"
         stroke="currentColor"
         fill="currentColor"
         x="-1"
         y="-1"
         width="2"
         height="2" />
      <circle
         id="gpPt5"
         stroke-width="0.222"
         stroke="currentColor"
         cx="0"
         cy="0"
         r="1" />
      <use
         xlink:href="#gpPt5"
         id="gpPt6"
         fill="currentColor"
         stroke="none" />
      <path
         id="gpPt7"
         stroke-width="0.222"
         stroke="currentColor"
         d="M0,-1.33 L-1.33,0.67 L1.33,0.67 z" />
      <use
         xlink:href="#gpPt7"
         id="gpPt8"
         fill="currentColor"
         stroke="none" />
      <use
         xlink:href="#gpPt7"
         id="gpPt9"
         stroke="currentColor"
         transform="rotate(180)" />
      <use
         xlink:href="#gpPt9"
         id="gpPt10"
         fill="currentColor"
         stroke="none" />
      <use
         xlink:href="#gpPt3"
         id="gpPt11"
         stroke="currentColor"
         transform="rotate(45)" />
      <use
         xlink:href="#gpPt11"
         id="gpPt12"
         fill="currentColor"
         stroke="none" />
    </defs>
    <g
       style="fill:none; color:white; stroke:black; stroke-width:1.00; stroke-linecap:butt; stroke-linejoin:miter"
       id="g27" />
    <g
       style="fill:none; color:black; stroke:currentColor; stroke-width:1.00; stroke-linecap:butt; stroke-linejoin:miter"
       id="g29">
      <path
         stroke="black"
         d="M88.5,422.4 L97.5,422.4 M575.0,422.4 L566.0,422.4  h0.01"
         id="path31" />
      <g
         transform="translate(80.2,426.9)"
         style="stroke:none; fill:black; font-family:Arial; font-size:12.00pt; text-anchor:end"
         id="g33">
        <text
           id="text35"> 0</text>
      </g>
      <path
         stroke="black"
         d="M88.5,348.6 L97.5,348.6 M575.0,348.6 L566.0,348.6  h0.01"
         id="path37" />
      <g
         transform="translate(80.2,353.1)"
         style="stroke:none; fill:black; font-family:Arial; font-size:12.00pt; text-anchor:end"
         id="g39">
        <text
           id="text41"> 2000</text>
      </g>
      <path
         stroke="black"
         d="M88.5,274.9 L97.5,274.9 M575.0,274.9 L566.0,274.9  h0.01"
         id="path43" />
      <g
         transform="translate(80.2,279.4)"
         style="stroke:none; fill:black; font-family:Arial; font-size:12.00pt; text-anchor:end"
         id="g45">
        <text
           id="text47"> 4000</text>
      </g>
      <path
         stroke="black"
         d="M88.5,201.1 L97.5,201.1 M575.0,201.1 L566.0,201.1  h0.01"
         id="path49" />
      <g
         transform="translate(80.2,205.6)"
         style="stroke:none; fill:black; font-family:Arial; font-size:12.00pt; text-anchor:end"
         id="g51">
        <text
           id="text53"> 6000</text>
      </g>
      <path
         stroke="black"
         d="M88.5,127.3 L97.5,127.3 M575.0,127.3 L566.0,127.3  h0.01"
         id="path55" />
      <g
         transform="translate(80.2,131.8)"
         style="stroke:none; fill:black; font-family:Arial; font-size:12.00pt; text-anchor:end"
         id="g57">
        <text
           id="text59"> 8000</text>
      </g>
      <path
         stroke="black"
         d="M88.5,53.6 L97.5,53.6 M575.0,53.6 L566.0,53.6  h0.01"
         id="path61" />
      <g
         transform="translate(80.2,58.1)"
         style="stroke:none; fill:black; font-family:Arial; font-size:12.00pt; text-anchor:end"
         id="g63">
        <text
           id="text65"> 10000</text>
      </g>
      <path
         stroke="black"
         d="M88.5,422.4 L88.5,413.4 M88.5,16.7 L88.5,25.7  h0.01"
         id="path67" />
      <g
         transform="translate(88.5,444.9)"
         style="stroke:none; fill:black; font-family:Arial; font-size:12.00pt; text-anchor:middle"
         id="g69">
        <text
           id="text71"> 0</text>
      </g>
      <path
         stroke="black"
         d="M185.8,422.4 L185.8,413.4 M185.8,16.7 L185.8,25.7  h0.01"
         id="path73" />
      <g
         transform="translate(185.8,444.9)"
         style="stroke:none; fill:black; font-family:Arial; font-size:12.00pt; text-anchor:middle"
         id="g75">
        <text
           id="text77"> 200</text>
      </g>
      <path
         stroke="black"
         d="M283.1,422.4 L283.1,413.4 M283.1,16.7 L283.1,25.7  h0.01"
         id="path79" />
      <g
         transform="translate(283.1,444.9)"
         style="stroke:none; fill:black; font-family:Arial; font-size:12.00pt; text-anchor:middle"
         id="g81">
        <text
           id="text83"> 400</text>
      </g>
      <path
         stroke="black"
         d="M380.4,422.4 L380.4,413.4 M380.4,16.7 L380.4,25.7  h0.01"
         id="path85" />
      <g
         transform="translate(380.4,444.9)"
         style="stroke:none; fill:black; font-family:Arial; font-size:12.00pt; text-anchor:middle"
         id="g87">
        <text
           id="text89"> 600</text>
      </g>
      <path
         stroke="black"
         d="M477.7,422.4 L477.7,413.4 M477.7,16.7 L477.7,25.7  h0.01"
         id="path91" />
      <g
         transform="translate(477.7,444.9)"
         style="stroke:none; fill:black; font-family:Arial; font-size:12.00pt; text-anchor:middle"
         id="g93">
        <text
           id="text95"> 800</text>
      </g>
      <path
         stroke="black"
         d="M575.0,422.4 L575.0,413.4 M575.0,16.7 L575.0,25.7  h0.01"
         id="path97" />
      <g
         transform="translate(575.0,444.9)"
         style="stroke:none; fill:black; font-family:Arial; font-size:12.00pt; text-anchor:middle"
         id="g99">
        <text
           id="text101"> 1000</text>
      </g>
      <path
         stroke="black"
         d="M88.5,16.7 L88.5,422.4 L575.0,422.4 L575.0,16.7 L88.5,16.7 Z  h0.01"
         id="path103" />
      <g
         transform="translate(17.6,219.6) rotate(270)"
         style="stroke:none; fill:black; font-family:Arial; font-size:12.00pt; text-anchor:middle"
         id="g105">
        <text
           id="text107">Number of Record Access Required</text>
      </g>
      <g
         transform="translate(331.7,471.9)"
         style="stroke:none; fill:black; font-family:Arial; font-size:12.00pt; text-anchor:middle"
         id="g109">
        <text
           id="text111">Number of records in Child Table</text>
      </g>
    </g>
    <g
       id="gnuplot_plot_1">
      <title
         id="title114">gnuplot_plot_1</title>
      <g
         style="fill:none; color:red; stroke:currentColor; stroke-width:1.00; stroke-linecap:butt; stroke-linejoin:miter"
         id="g116">
        <g
           transform="translate(507.9,39.2)"
           style="stroke:none; fill:black; font-family:Arial; font-size:12.00pt; text-anchor:end"
           id="g118">
          <text
             id="text120">Tradional Relational Databases (100)</text>
        </g>
        <path
           d="M516.2,34.7 L558.4,34.7 M88.5,422.4 L93.4,385.1 L98.3,347.9 L103.2,310.6 L108.2,273.4 L113.1,236.1    L118.0,198.9 L122.9,161.6 L127.8,124.4 L132.7,87.1 L137.6,49.9 L142.0,16.7  h0.01"
           id="path122" />
      </g>
    </g>
    <g
       id="gnuplot_plot_2">
      <title
         id="title125">gnuplot_plot_2</title>
      <g
         style="fill:none; color:green; stroke:currentColor; stroke-width:1.00; stroke-linecap:butt; stroke-linejoin:miter"
         id="g127">
        <g
           transform="translate(507.9,57.2)"
           style="stroke:none; fill:black; font-family:Arial; font-size:12.00pt; text-anchor:end"
           id="g129">
          <text
             id="text131">Proposed Model (100)</text>
        </g>
        <path
           d="M516.2,52.7 L558.4,52.7 M88.5,418.7 L93.4,418.7 L98.3,418.7 L103.2,418.7 L108.2,418.7 L113.1,418.7    L118.0,418.7 L122.9,418.7 L127.8,418.7 L132.7,418.7 L137.6,418.7 L142.6,418.3 L147.5,417.9 L152.4,417.6    L157.3,417.2 L162.2,416.8 L167.1,416.4 L172.0,416.1 L177.0,415.7 L181.9,415.3 L186.8,414.9 L191.7,414.6    L196.6,414.2 L201.5,413.8 L206.4,413.5 L211.4,413.1 L216.3,412.7 L221.2,412.3 L226.1,412.0 L231.0,411.6    L235.9,411.2 L240.8,410.9 L245.8,410.5 L250.7,410.1 L255.6,409.7 L260.5,409.4 L265.4,409.0 L270.3,408.6    L275.2,408.2 L280.2,407.9 L285.1,407.5 L290.0,407.1 L294.9,406.8 L299.8,406.4 L304.7,406.0 L309.6,405.6    L314.6,405.3 L319.5,404.9 L324.4,404.5 L329.3,404.1 L334.2,403.8 L339.1,403.4 L344.0,403.0 L348.9,402.7    L353.9,402.3 L358.8,401.9 L363.7,401.5 L368.6,401.2 L373.5,400.8 L378.4,400.4 L383.3,400.0 L388.3,399.7    L393.2,399.3 L398.1,398.9 L403.0,398.6 L407.9,398.2 L412.8,397.8 L417.7,397.4 L422.7,397.1 L427.6,396.7    L432.5,396.3 L437.4,395.9 L442.3,395.6 L447.2,395.2 L452.1,394.8 L457.1,394.5 L462.0,394.1 L466.9,393.7    L471.8,393.3 L476.7,393.0 L481.6,392.6 L486.5,392.2 L491.5,391.9 L496.4,391.5 L501.3,391.1 L506.2,390.7    L511.1,390.4 L516.0,390.0 L520.9,389.6 L525.9,389.2 L530.8,388.9 L535.7,388.5 L540.6,388.1 L545.5,387.8    L550.4,387.4 L555.3,387.0 L560.3,386.6 L565.2,386.3 L570.1,385.9 L575.0,385.5  h0.01"
           id="path133"
           style="stroke-width:1;stroke-miterlimit:4;stroke-dasharray:12,12;stroke-dashoffset:0" />
      </g>
    </g>
    <g
       id="gnuplot_plot_3">
      <title
         id="title136">gnuplot_plot_3</title>
      <g
         style="fill:none; color:blue; stroke:currentColor; stroke-width:1.00; stroke-linecap:butt; stroke-linejoin:miter"
         id="g138">
        <g
           transform="translate(507.9,75.2)"
           style="stroke:none; fill:black; font-family:Arial; font-size:12.00pt; text-anchor:end"
           id="g140">
          <text
             id="text142">Traditional Relational Database (50)</text>
        </g>
        <path
           d="M516.2,70.7 L558.4,70.7 M88.5,422.4 L93.4,403.8 L98.3,385.1 L103.2,366.5 L108.2,347.9 L113.1,329.3    L118.0,310.6 L122.9,292.0 L127.8,273.4 L132.7,254.8 L137.6,236.1 L142.6,217.5 L147.5,198.9 L152.4,180.2    L157.3,161.6 L162.2,143.0 L167.1,124.4 L172.0,105.7 L177.0,87.1 L181.9,68.5 L186.8,49.9 L191.7,31.2    L195.5,16.7  h0.01"
           id="path144"
           style="stroke-width:1;stroke-miterlimit:4;stroke-dasharray:4,2,1,2;stroke-dashoffset:0" />
      </g>
    </g>
    <g
       id="gnuplot_plot_4">
      <title
         id="title147">gnuplot_plot_4</title>
      <g
         style="fill:none; color:cyan; stroke:currentColor; stroke-width:1.00; stroke-linecap:butt; stroke-linejoin:miter"
         id="g149">
        <g
           transform="translate(507.9,93.2)"
           style="stroke:none; fill:black; font-family:Arial; font-size:12.00pt; text-anchor:end"
           id="g151">
          <text
             id="text153">Tradional Relational Database (25)</text>
        </g>
        <path
           d="M516.2,88.7 L558.4,88.7 M88.5,422.4 L93.4,418.7 L98.3,414.9 L103.2,411.2 L108.2,407.5 L113.1,403.8    L118.0,400.0 L122.9,396.3 L127.8,392.6 L132.7,388.9 L137.6,385.1 L142.6,381.4 L147.5,377.7 L152.4,374.0    L157.3,370.2 L162.2,366.5 L167.1,362.8 L172.0,359.1 L177.0,355.3 L181.9,351.6 L186.8,347.9 L191.7,344.2    L196.6,340.4 L201.5,336.7 L206.4,333.0 L211.4,329.3 L216.3,325.5 L221.2,321.8 L226.1,318.1 L231.0,314.4    L235.9,310.6 L240.8,306.9 L245.8,303.2 L250.7,299.5 L255.6,295.7 L260.5,292.0 L265.4,288.3 L270.3,284.6    L275.2,280.8 L280.2,277.1 L285.1,273.4 L290.0,269.7 L294.9,265.9 L299.8,262.2 L304.7,258.5 L309.6,254.8    L314.6,251.0 L319.5,247.3 L324.4,243.6 L329.3,239.9 L334.2,236.1 L339.1,232.4 L344.0,228.7 L348.9,225.0    L353.9,221.2 L358.8,217.5 L363.7,213.8 L368.6,210.1 L373.5,206.3 L378.4,202.6 L383.3,198.9 L388.3,195.1    L393.2,191.4 L398.1,187.7 L403.0,184.0 L407.9,180.2 L412.8,176.5 L417.7,172.8 L422.7,169.1 L427.6,165.3    L432.5,161.6 L437.4,157.9 L442.3,154.2 L447.2,150.4 L452.1,146.7 L457.1,143.0 L462.0,139.3 L466.9,135.5    L471.8,131.8 L476.7,128.1 L481.6,124.4 L486.5,120.6 L491.5,116.9 L496.4,113.2 L501.3,109.5 L506.2,105.7    L511.1,102.0 L516.0,98.3 L520.9,94.6 L525.9,90.8 L530.8,87.1 L535.7,83.4 L540.6,79.7 L545.5,75.9    L550.4,72.2 L555.3,68.5 L560.3,64.8 L565.2,61.0 L570.1,57.3 L575.0,53.6  h0.01"
           id="path155"
           style="stroke-width:1;stroke-miterlimit:4;stroke-dasharray:4,4;stroke-dashoffset:0" />
      </g>
    </g>
    <g
       style="fill:none; color:black; stroke:currentColor; stroke-width:1.00; stroke-linecap:butt; stroke-linejoin:miter"
       id="g157">
      <path
         stroke="black"
         d="M88.5,16.7 L88.5,422.4 L575.0,422.4 L575.0,16.7 L88.5,16.7 Z  h0.01"
         id="path159" />
    </g>
  </g>
</svg>
